{
    "asset" : {
        "generator" : "Khronos glTF Blender I/O v1.2.75",
        "version" : "2.0"
    },
    "scene" : 0,
    "scenes" : [
        {
            "name" : "Scene",
            "nodes" : [
                0
            ]
        }
    ],
    "nodes" : [
        {
            "mesh" : 0,
            "name" : "Cylinder"
        }
    ],
    "meshes" : [
        {
            "name" : "Cylinder",
            "primitives" : [
                {
                    "attributes" : {
                        "POSITION" : 0,
                        "NORMAL" : 1,
                        "TEXCOORD_0" : 2
                    },
                    "indices" : 3
                }
            ]
        }
    ],
    "accessors" : [
        {
            "bufferView" : 0,
            "componentType" : 5126,
            "count" : 2176,
            "max" : [
                1.000000238418579,
                2,
                1.0000003576278687
            ],
            "min" : [
                -1,
                -2,
                -1.0000003576278687
            ],
            "type" : "VEC3"
        },
        {
            "bufferView" : 1,
            "componentType" : 5126,
            "count" : 2176,
            "type" : "VEC3"
        },
        {
            "bufferView" : 2,
            "componentType" : 5126,
            "count" : 2176,
            "type" : "VEC2"
        },
        {
            "bufferView" : 3,
            "componentType" : 5123,
            "count" : 3252,
            "type" : "SCALAR"
        }
    ],
    "bufferViews" : [
        {
            "buffer" : 0,
            "byteLength" : 26112,
            "byteOffset" : 0
        },
        {
            "buffer" : 0,
            "byteLength" : 26112,
            "byteOffset" : 26112
        },
        {
            "buffer" : 0,
            "byteLength" : 17408,
            "byteOffset" : 52224
        },
        {
            "buffer" : 0,
            "byteLength" : 6504,
            "byteOffset" : 69632
        }
    ],
    "buffers" : [
        {
            "byteLength" : 76136,
            "uri" : "bean.bin"
        }
    ]
}
